<svg preserveAspectRatio="none" width="100%" height="100%" overflow="visible" style="display: block;" viewBox="0 0 16 16" fill="none" xmlns="http://www.w3.org/2000/svg">
<g id="icon_base-agent-computer_outlined">
<g id="Vector">
<path d="M12 14C12.3682 14 12.6667 14.2985 12.6667 14.6667C12.6667 15.0349 12.3682 15.3333 12 15.3333H4C3.63181 15.3333 3.33333 15.0349 3.33333 14.6667C3.33333 14.2985 3.63181 14 4 14H12Z" fill="#1F2329" fill-opacity="0.6"/>
<path d="M7.33333 12C7.33333 11.6318 7.63181 11.3333 8 11.3333C8.36819 11.3333 8.66667 11.6318 8.66667 12V14C8.66667 14.3682 8.36819 14.6667 8 14.6667C7.63181 14.6667 7.33333 14.3682 7.33333 14V12Z" fill="#1F2329" fill-opacity="0.6"/>
<path d="M14 4.66667C14 3.5621 13.1046 2.66667 12 2.66667H4C2.89543 2.66667 2 3.5621 2 4.66667V8.66667C2 9.77124 2.89543 10.6667 4 10.6667H12C13.1046 10.6667 14 9.77124 14 8.66667V4.66667ZM15.3333 8.66667C15.3333 10.5076 13.8409 12 12 12H4C2.15905 12 0.666667 10.5076 0.666667 8.66667V4.66667C0.666667 2.82572 2.15905 1.33333 4 1.33333H12C13.8409 1.33333 15.3333 2.82572 15.3333 4.66667V8.66667Z" fill="#1F2329" fill-opacity="0.6"/>
</g>
</g>
</svg>
