<svg preserveAspectRatio="none" width="100%" height="100%" overflow="visible" style="display: block;" viewBox="0 0 20.1215 16" fill="none" xmlns="http://www.w3.org/2000/svg">
<g id="Frame 2147239107">
<path id="Vector" d="M10.4549 8.40229C10.4709 8.38629 10.4892 8.37029 10.5052 8.35429C10.5395 8.32229 10.5715 8.29029 10.6058 8.256L10.6743 8.18972L10.8801 7.98629L11.1589 7.712L11.3989 7.47429L11.6229 7.25257L11.8583 7.02172L12.0732 6.80914L12.3726 6.512C12.4298 6.45714 12.4869 6.40229 12.5463 6.34743C12.6561 6.24914 12.7681 6.15314 12.8823 6.05943C12.9875 5.97486 13.0949 5.89257 13.2069 5.81486C13.3623 5.70515 13.5201 5.60229 13.6846 5.50629C13.8446 5.41257 14.0092 5.32343 14.1783 5.24115C14.3361 5.16572 14.4983 5.09486 14.6629 5.03086C14.7543 4.99429 14.8481 4.96229 14.9418 4.93029C14.9898 4.91429 15.0355 4.89829 15.0835 4.88457C14.6629 3.22286 13.8903 1.70058 12.8503 0.402291C12.6423 0.146291 12.3338 5.72205e-06 12.0069 5.72205e-06H3.37606C3.22063 5.72205e-06 3.15434 0.198863 3.28006 0.292577C6.21491 2.44343 8.6652 5.21829 10.4343 8.42286C10.4412 8.416 10.4481 8.41143 10.4549 8.40457V8.40229Z" fill="var(--fill-0, #00D6B9)"/>
<path id="Vector_2" d="M7.03314 16C11.4903 16 15.3714 13.5406 17.3966 9.9063C17.4674 9.7783 17.536 9.6503 17.6023 9.52001C17.4994 9.71658 17.3851 9.90401 17.264 10.08C17.2206 10.1417 17.1749 10.2034 17.1291 10.2652C17.072 10.3406 17.0103 10.4137 16.9486 10.4846C16.9006 10.5417 16.8503 10.5943 16.7977 10.6492C16.6926 10.7566 16.5851 10.8594 16.4731 10.9554C16.4114 11.008 16.3474 11.0606 16.2811 11.1109C16.2057 11.1703 16.128 11.2252 16.048 11.2777C15.9977 11.312 15.9474 11.344 15.8949 11.376C15.8423 11.408 15.7874 11.44 15.7326 11.472C15.6206 11.5337 15.5063 11.5909 15.3897 11.6434C15.2891 11.6892 15.1863 11.7303 15.0811 11.7692C14.9691 11.8103 14.8526 11.8469 14.736 11.8789C14.5623 11.9269 14.3863 11.9657 14.208 11.9932C14.0777 12.0137 13.9474 12.0274 13.8149 12.0366C13.6823 12.0457 13.536 12.0503 13.3943 12.048C13.2389 12.0457 13.0834 12.0366 12.9257 12.0183C12.8114 12.0046 12.6949 11.9886 12.5783 11.968C12.4777 11.9497 12.3771 11.9292 12.2743 11.904C12.2217 11.8903 12.1669 11.8789 12.1143 11.8629C11.9657 11.8217 11.8171 11.7806 11.6709 11.7394C11.5977 11.7189 11.5246 11.696 11.4514 11.6754C11.3417 11.6434 11.232 11.6092 11.1246 11.5749C11.0354 11.5474 10.9463 11.5177 10.8571 11.4903C10.768 11.4629 10.688 11.4354 10.6034 11.408C10.5463 11.3897 10.4891 11.3692 10.432 11.3486C10.3611 11.3257 10.2926 11.3006 10.224 11.2754C10.1737 11.2572 10.1257 11.2412 10.0754 11.2229C9.97714 11.1886 9.87885 11.152 9.78285 11.1154C9.72571 11.0949 9.66857 11.072 9.61371 11.0514C9.53828 11.0217 9.46285 10.9943 9.38742 10.9646C9.30742 10.9326 9.22742 10.9006 9.14971 10.8686C9.09714 10.848 9.04685 10.8274 8.99428 10.8046C8.93028 10.7772 8.86628 10.752 8.80228 10.7246C8.752 10.704 8.704 10.6834 8.65371 10.6629C8.60343 10.6423 8.55085 10.6194 8.50057 10.5966C8.45714 10.5783 8.41143 10.5577 8.368 10.5372C8.32685 10.5189 8.288 10.5006 8.24685 10.4823C8.20571 10.464 8.16457 10.4457 8.12343 10.4274C8.08228 10.4092 8.03885 10.3886 7.99771 10.3703C7.94514 10.3452 7.89028 10.32 7.83771 10.2949C7.78285 10.2697 7.72571 10.2423 7.67085 10.2149C7.61143 10.1852 7.552 10.1577 7.49257 10.128C7.44228 10.1029 7.392 10.0777 7.34171 10.0526C4.66971 8.72001 2.30171 6.94173 0.281143 4.78858C0.178286 4.68116 0 4.75201 0 4.8983L0.00457143 12.5143V13.1314C0.00457143 13.4903 0.180571 13.8263 0.48 14.0252C2.35657 15.2731 4.61028 15.9977 7.03314 15.9977" fill="var(--fill-0, #3370FF)"/>
<path id="Vector_3" d="M20.1215 5.26633C19.2187 4.82061 18.2015 4.57147 17.1273 4.57147C16.4895 4.57147 15.8701 4.66061 15.285 4.82518C15.2164 4.84347 15.1501 4.86404 15.0838 4.88461C15.0358 4.90061 14.9901 4.91433 14.9421 4.93033C14.8484 4.96233 14.7547 4.99661 14.6633 5.0309C14.4987 5.0949 14.3364 5.16576 14.1787 5.24118C14.0095 5.32347 13.845 5.41033 13.685 5.50633C13.5204 5.60233 13.3627 5.70518 13.2073 5.8149C13.0975 5.89261 12.9878 5.9749 12.8827 6.05947C12.7684 6.1509 12.6564 6.2469 12.5467 6.34747C12.4873 6.40233 12.4301 6.45718 12.373 6.51204L12.0735 6.80918L11.8587 7.02175L11.6233 7.25261L11.3993 7.47433L11.1593 7.71204L10.8804 7.98633L10.6747 8.18975L10.6061 8.25604C10.5741 8.28804 10.5398 8.32233 10.5055 8.35433C10.4895 8.37033 10.4713 8.38632 10.4553 8.40232C10.4301 8.42747 10.405 8.45033 10.3798 8.47318C10.3524 8.50061 10.3227 8.52575 10.2953 8.5509C9.55698 9.22975 8.73183 9.8149 7.83812 10.2903C7.89069 10.3155 7.94555 10.3406 7.99812 10.3658C8.03926 10.3863 8.08269 10.4046 8.12383 10.4229C8.16498 10.4412 8.20612 10.4595 8.24726 10.4778C8.28841 10.496 8.32726 10.5143 8.36841 10.5326C8.41183 10.5532 8.45755 10.5715 8.50098 10.592C8.55126 10.6149 8.60383 10.6355 8.65412 10.6583C8.70212 10.6789 8.7524 10.6995 8.80269 10.72C8.86669 10.7475 8.93069 10.7726 8.99469 10.8C9.04726 10.8206 9.09755 10.8412 9.15012 10.864C9.23012 10.896 9.31012 10.928 9.38783 10.96C9.46326 10.9898 9.53869 11.0195 9.61412 11.0469C9.67126 11.0675 9.7284 11.0903 9.78326 11.1109C9.88155 11.1475 9.97755 11.184 10.0758 11.2183C10.1261 11.2366 10.1741 11.2549 10.2244 11.2709C10.293 11.296 10.3638 11.3189 10.4324 11.344C10.4895 11.3646 10.5467 11.3829 10.6038 11.4035C10.6884 11.4309 10.773 11.4583 10.8575 11.4858C10.9467 11.5155 11.0358 11.5429 11.125 11.5703C11.2347 11.6046 11.3421 11.6366 11.4518 11.6709C11.525 11.6938 11.5981 11.7143 11.6713 11.7349C11.8175 11.7783 11.9661 11.8195 12.1147 11.8583C12.1673 11.872 12.2221 11.8858 12.2747 11.8995C12.3753 11.9246 12.4781 11.9452 12.5787 11.9635C12.6953 11.984 12.8095 12 12.9261 12.0138C13.0838 12.032 13.2393 12.0412 13.3947 12.0435C13.5364 12.0435 13.6758 12.0435 13.8153 12.032C13.9478 12.0229 14.0781 12.0069 14.2084 11.9886C14.3867 11.9612 14.565 11.9223 14.7364 11.8743C14.853 11.8423 14.9673 11.8058 15.0815 11.7646C15.1867 11.7258 15.2895 11.6846 15.3901 11.6389C15.5067 11.5863 15.621 11.5292 15.733 11.4675C15.7878 11.4378 15.8427 11.4058 15.8953 11.3715C15.9478 11.3395 15.9981 11.3075 16.0484 11.2732C16.1284 11.2206 16.2061 11.1635 16.2815 11.1063C16.3455 11.056 16.4095 11.0035 16.4735 10.9509C16.5855 10.8549 16.6953 10.752 16.7981 10.6446C16.8484 10.592 16.8987 10.5372 16.949 10.48C17.0107 10.4092 17.0701 10.336 17.1295 10.2606C17.1753 10.2012 17.221 10.1395 17.2644 10.0755C17.3855 9.90175 17.4998 9.71661 17.6004 9.52004L17.717 9.28918L18.7593 7.20918V7.21375C19.0907 6.48233 19.5547 5.82176 20.1215 5.26176V5.26633Z" fill="var(--fill-0, #133C9A)"/>
</g>
</svg>
